<mxfile host="app.diagrams.net" modified="2021-02-12T20:46:54.756Z" agent="5.0 (Windows NT 10.0; Win64; x64) AppleWebKit/537.36 (KHTML, like Gecko) Chrome/88.0.4324.150 Safari/537.36" etag="_N54OHlRBJnwMZHSGsBZ" version="14.3.1" type="github">
  <diagram id="Dn5W-vgMYl0rk9NSS8OV" name="Page-1">
    <mxGraphModel dx="868" dy="450" grid="1" gridSize="10" guides="1" tooltips="1" connect="1" arrows="1" fold="1" page="1" pageScale="1" pageWidth="240" pageHeight="85" math="0" shadow="0">
      <root>
        <mxCell id="0" />
        <mxCell id="1" parent="0" />
        <mxCell id="MJEeBUbXhlYbVo8axPle-1" value="Block" style="swimlane;fontStyle=1;align=center;verticalAlign=top;childLayout=stackLayout;horizontal=1;startSize=26;horizontalStack=0;resizeParent=1;resizeParentMax=0;resizeLast=0;collapsible=1;marginBottom=0;" parent="1" vertex="1">
          <mxGeometry x="150" y="10" width="180" height="56" as="geometry" />
        </mxCell>
        <mxCell id="MJEeBUbXhlYbVo8axPle-3" value="" style="line;strokeWidth=1;fillColor=none;align=left;verticalAlign=middle;spacingTop=-1;spacingLeft=3;spacingRight=3;rotatable=0;labelPosition=right;points=[];portConstraint=eastwest;" parent="MJEeBUbXhlYbVo8axPle-1" vertex="1">
          <mxGeometry y="26" width="180" height="4" as="geometry" />
        </mxCell>
        <mxCell id="MJEeBUbXhlYbVo8axPle-4" value="+ ConstantRotation(): void" style="text;strokeColor=none;fillColor=none;align=left;verticalAlign=top;spacingLeft=4;spacingRight=4;overflow=hidden;rotatable=0;points=[[0,0.5],[1,0.5]];portConstraint=eastwest;" parent="MJEeBUbXhlYbVo8axPle-1" vertex="1">
          <mxGeometry y="30" width="180" height="26" as="geometry" />
        </mxCell>
        <mxCell id="MJEeBUbXhlYbVo8axPle-15" value="Home" style="swimlane;fontStyle=1;align=center;verticalAlign=top;childLayout=stackLayout;horizontal=1;startSize=26;horizontalStack=0;resizeParent=1;resizeParentMax=0;resizeLast=0;collapsible=1;marginBottom=0;" parent="1" vertex="1">
          <mxGeometry x="150" y="250" width="180" height="60" as="geometry">
            <mxRectangle x="269" y="60" width="70" height="26" as="alternateBounds" />
          </mxGeometry>
        </mxCell>
        <mxCell id="MJEeBUbXhlYbVo8axPle-17" value="" style="line;strokeWidth=1;fillColor=none;align=left;verticalAlign=middle;spacingTop=-1;spacingLeft=3;spacingRight=3;rotatable=0;labelPosition=right;points=[];portConstraint=eastwest;" parent="MJEeBUbXhlYbVo8axPle-15" vertex="1">
          <mxGeometry y="26" width="180" height="34" as="geometry" />
        </mxCell>
        <mxCell id="MJEeBUbXhlYbVo8axPle-19" value="RobotWorld" style="swimlane;fontStyle=1;align=center;verticalAlign=top;childLayout=stackLayout;horizontal=1;startSize=26;horizontalStack=0;resizeParent=1;resizeParentMax=0;resizeLast=0;collapsible=1;marginBottom=0;" parent="1" vertex="1">
          <mxGeometry x="150" y="437.5" width="180" height="60" as="geometry" />
        </mxCell>
        <mxCell id="MJEeBUbXhlYbVo8axPle-21" value="" style="line;strokeWidth=1;fillColor=none;align=left;verticalAlign=middle;spacingTop=-1;spacingLeft=3;spacingRight=3;rotatable=0;labelPosition=right;points=[];portConstraint=eastwest;" parent="MJEeBUbXhlYbVo8axPle-19" vertex="1">
          <mxGeometry y="26" width="180" height="8" as="geometry" />
        </mxCell>
        <mxCell id="MJEeBUbXhlYbVo8axPle-22" value="+ preparesScenario(): void" style="text;strokeColor=none;fillColor=none;align=left;verticalAlign=top;spacingLeft=4;spacingRight=4;overflow=hidden;rotatable=0;points=[[0,0.5],[1,0.5]];portConstraint=eastwest;" parent="MJEeBUbXhlYbVo8axPle-19" vertex="1">
          <mxGeometry y="34" width="180" height="26" as="geometry" />
        </mxCell>
        <mxCell id="MJEeBUbXhlYbVo8axPle-23" value="Pizza" style="swimlane;fontStyle=1;align=center;verticalAlign=top;childLayout=stackLayout;horizontal=1;startSize=26;horizontalStack=0;resizeParent=1;resizeParentMax=0;resizeLast=0;collapsible=1;marginBottom=0;" parent="1" vertex="1">
          <mxGeometry x="150" y="608" width="180" height="60" as="geometry" />
        </mxCell>
        <mxCell id="MJEeBUbXhlYbVo8axPle-25" value="" style="line;strokeWidth=1;fillColor=none;align=left;verticalAlign=middle;spacingTop=-1;spacingLeft=3;spacingRight=3;rotatable=0;labelPosition=right;points=[];portConstraint=eastwest;" parent="MJEeBUbXhlYbVo8axPle-23" vertex="1">
          <mxGeometry y="26" width="180" height="34" as="geometry" />
        </mxCell>
        <mxCell id="MJEeBUbXhlYbVo8axPle-31" value="ScorePanel" style="swimlane;fontStyle=1;align=center;verticalAlign=top;childLayout=stackLayout;horizontal=1;startSize=26;horizontalStack=0;resizeParent=1;resizeParentMax=0;resizeLast=0;collapsible=1;marginBottom=0;" parent="1" vertex="1">
          <mxGeometry x="150" y="340" width="180" height="60" as="geometry">
            <mxRectangle x="269" y="60" width="70" height="26" as="alternateBounds" />
          </mxGeometry>
        </mxCell>
        <mxCell id="MJEeBUbXhlYbVo8axPle-32" value="" style="line;strokeWidth=1;fillColor=none;align=left;verticalAlign=middle;spacingTop=-1;spacingLeft=3;spacingRight=3;rotatable=0;labelPosition=right;points=[];portConstraint=eastwest;" parent="MJEeBUbXhlYbVo8axPle-31" vertex="1">
          <mxGeometry y="26" width="180" height="34" as="geometry" />
        </mxCell>
        <mxCell id="MJEeBUbXhlYbVo8axPle-33" value="Wall" style="swimlane;fontStyle=1;align=center;verticalAlign=top;childLayout=stackLayout;horizontal=1;startSize=26;horizontalStack=0;resizeParent=1;resizeParentMax=0;resizeLast=0;collapsible=1;marginBottom=0;" parent="1" vertex="1">
          <mxGeometry x="150" y="522.5" width="180" height="60" as="geometry">
            <mxRectangle x="269" y="60" width="70" height="26" as="alternateBounds" />
          </mxGeometry>
        </mxCell>
        <mxCell id="MJEeBUbXhlYbVo8axPle-34" value="" style="line;strokeWidth=1;fillColor=none;align=left;verticalAlign=middle;spacingTop=-1;spacingLeft=3;spacingRight=3;rotatable=0;labelPosition=right;points=[];portConstraint=eastwest;" parent="MJEeBUbXhlYbVo8axPle-33" vertex="1">
          <mxGeometry y="26" width="180" height="34" as="geometry" />
        </mxCell>
        <mxCell id="MJEeBUbXhlYbVo8axPle-35" value="Robot" style="swimlane;fontStyle=1;align=center;verticalAlign=top;childLayout=stackLayout;horizontal=1;startSize=26;horizontalStack=0;resizeParent=1;resizeParentMax=0;resizeLast=0;collapsible=1;marginBottom=0;" parent="1" vertex="1">
          <mxGeometry x="100" y="85" width="290" height="140" as="geometry">
            <mxRectangle x="269" y="60" width="70" height="26" as="alternateBounds" />
          </mxGeometry>
        </mxCell>
        <mxCell id="aU7XzF5HTLkWooPSEidq-7" value="- Xi: int&lt;br&gt;- Yi: int" style="text;html=1;align=left;verticalAlign=middle;resizable=0;points=[];autosize=1;" vertex="1" parent="MJEeBUbXhlYbVo8axPle-35">
          <mxGeometry y="26" width="290" height="30" as="geometry" />
        </mxCell>
        <mxCell id="MJEeBUbXhlYbVo8axPle-36" value="" style="line;strokeWidth=1;fillColor=none;align=left;verticalAlign=middle;spacingTop=-1;spacingLeft=3;spacingRight=3;rotatable=0;labelPosition=right;points=[];portConstraint=eastwest;" parent="MJEeBUbXhlYbVo8axPle-35" vertex="1">
          <mxGeometry y="56" width="290" height="4" as="geometry" />
        </mxCell>
        <mxCell id="aU7XzF5HTLkWooPSEidq-3" value="+ robotMovement(String, String, String, String): void&lt;br&gt;+ detectedWallCollision(): void&lt;br&gt;+ detectedBlockCollision(): void&lt;br&gt;+ detectHome(): void&lt;br&gt;+ eatPizza(): void" style="text;html=1;align=left;verticalAlign=middle;resizable=0;points=[];autosize=1;" vertex="1" parent="MJEeBUbXhlYbVo8axPle-35">
          <mxGeometry y="60" width="290" height="80" as="geometry" />
        </mxCell>
      </root>
    </mxGraphModel>
  </diagram>
</mxfile>
